<svg width="243" height="78" viewBox="0 0 243 78" fill="none" xmlns="http://www.w3.org/2000/svg">
<path d="M56.9639 57.0659L63.5314 25.3589H67.9243L74.5354 57.0659H71.3168L69.925 49.9329H61.5307L60.1389 57.0659H56.9639ZM61.9657 47.4103H69.4901L66.924 34.5361L65.8366 28.4035H65.6191L64.5318 34.5361L61.9657 47.4103ZM85.3528 57.5009C83.758 57.4719 82.3662 57.1674 81.1774 56.5875C79.9885 56.0076 79.0752 55.0217 78.4373 53.6299C77.7994 52.2381 77.4804 50.3534 77.4804 47.9757V34.4491C77.4804 32.6514 77.6544 31.1436 78.0023 29.9257C78.3793 28.7079 78.9012 27.7365 79.5681 27.0116C80.264 26.2867 81.0904 25.7648 82.0473 25.4459C83.0331 25.0979 84.135 24.9239 85.3528 24.9239C87.1795 24.9239 88.6583 25.3154 89.7892 26.0983C90.949 26.8812 91.7899 28.099 92.3118 29.7518C92.8337 31.4045 93.0947 33.5502 93.0947 36.1889H89.9631C89.9921 34.1011 89.8472 32.4339 89.5282 31.1871C89.2382 29.9402 88.7598 29.0414 88.0929 28.4904C87.426 27.9105 86.4981 27.6206 85.3093 27.6206C84.1205 27.6206 83.1926 27.8815 82.5257 28.4035C81.8588 28.8964 81.3803 29.6213 81.0904 30.5781C80.8004 31.535 80.6554 32.6803 80.6554 34.0142V48.4106C80.6554 49.6575 80.7714 50.7013 81.0034 51.5422C81.2354 52.3831 81.5543 53.05 81.9603 53.5429C82.3662 54.0068 82.8446 54.3403 83.3956 54.5433C83.9755 54.7172 84.6134 54.8042 85.3093 54.8042C86.5271 54.8042 87.4695 54.5143 88.1364 53.9344C88.8033 53.3544 89.2817 52.4411 89.5717 51.1942C89.8617 49.9184 89.9921 48.2657 89.9631 46.2359H93.0947C93.0947 48.2367 92.9352 49.9474 92.6163 51.3682C92.3263 52.789 91.8624 53.9489 91.2245 54.8477C90.6155 55.7466 89.8182 56.4135 88.8323 56.8484C87.8754 57.2834 86.7156 57.5009 85.3528 57.5009ZM105.571 57.5009C103.976 57.4719 102.584 57.1674 101.395 56.5875C100.206 56.0076 99.293 55.0217 98.6551 53.6299C98.0172 52.2381 97.6983 50.3534 97.6983 47.9757V34.4491C97.6983 32.6514 97.8722 31.1436 98.2202 29.9257C98.5971 28.7079 99.1191 27.7365 99.786 27.0116C100.482 26.2867 101.308 25.7648 102.265 25.4459C103.251 25.0979 104.353 24.9239 105.571 24.9239C107.397 24.9239 108.876 25.3154 110.007 26.0983C111.167 26.8812 112.008 28.099 112.53 29.7518C113.052 31.4045 113.313 33.5502 113.313 36.1889H110.181C110.21 34.1011 110.065 32.4339 109.746 31.1871C109.456 29.9402 108.978 29.0414 108.311 28.4904C107.644 27.9105 106.716 27.6206 105.527 27.6206C104.338 27.6206 103.41 27.8815 102.744 28.4035C102.077 28.8964 101.598 29.6213 101.308 30.5781C101.018 31.535 100.873 32.6803 100.873 34.0142V48.4106C100.873 49.6575 100.989 50.7013 101.221 51.5422C101.453 52.3831 101.772 53.05 102.178 53.5429C102.584 54.0068 103.062 54.3403 103.613 54.5433C104.193 54.7172 104.831 54.8042 105.527 54.8042C106.745 54.8042 107.687 54.5143 108.354 53.9344C109.021 53.3544 109.5 52.4411 109.79 51.1942C110.08 49.9184 110.21 48.2657 110.181 46.2359H113.313C113.313 48.2367 113.153 49.9474 112.834 51.3682C112.544 52.789 112.08 53.9489 111.442 54.8477C110.833 55.7466 110.036 56.4135 109.05 56.8484C108.093 57.2834 106.933 57.5009 105.571 57.5009ZM118.656 57.0659V25.3589H130.616V28.0555H121.831V39.4509H129.616V42.104H121.831V54.3693H130.877V57.0659H118.656ZM142.384 57.4574C140.499 57.4574 138.991 57.0804 137.86 56.3265C136.759 55.5726 135.961 54.4418 135.468 52.934C135.004 51.4262 134.758 49.5415 134.729 47.2798H137.773C137.802 49.0775 137.947 50.5418 138.208 51.6727C138.498 52.7745 138.977 53.5864 139.644 54.1083C140.34 54.6013 141.267 54.8477 142.427 54.8477C143.5 54.8477 144.341 54.6013 144.95 54.1083C145.559 53.5864 145.979 52.934 146.211 52.1511C146.472 51.3392 146.603 50.5273 146.603 49.7155C146.603 48.6716 146.443 47.7582 146.124 46.9753C145.834 46.1924 145.443 45.5255 144.95 44.9746C144.457 44.4237 143.892 43.9308 143.254 43.4958C142.616 43.0319 141.949 42.5825 141.253 42.1475C140.528 41.6836 139.789 41.1907 139.035 40.6687C138.281 40.1468 137.599 39.5379 136.991 38.842C136.411 38.1461 135.932 37.3052 135.555 36.3193C135.207 35.3335 135.033 34.1591 135.033 32.7963C135.033 31.0276 135.338 29.5633 135.947 28.4035C136.556 27.2436 137.396 26.3737 138.469 25.7938C139.542 25.2139 140.789 24.9239 142.21 24.9239C143.979 24.9239 145.414 25.3009 146.516 26.0548C147.647 26.7797 148.473 27.896 148.995 29.4038C149.546 30.8826 149.836 32.7673 149.865 35.058H146.777C146.777 33.2313 146.617 31.7815 146.298 30.7086C146.008 29.6068 145.53 28.8094 144.863 28.3165C144.196 27.7945 143.297 27.5336 142.166 27.5336C141.122 27.5336 140.296 27.7945 139.687 28.3165C139.107 28.8384 138.701 29.4908 138.469 30.2737C138.237 31.0566 138.121 31.854 138.121 32.6659C138.121 33.6227 138.266 34.4491 138.556 35.145C138.846 35.8409 139.223 36.4498 139.687 36.9717C140.18 37.4937 140.731 37.9721 141.34 38.407C141.949 38.813 142.587 39.2189 143.254 39.6249C143.863 40.0018 144.486 40.4078 145.124 40.8427C145.762 41.2486 146.356 41.7126 146.907 42.2345C147.487 42.7274 147.995 43.3219 148.429 44.0178C148.864 44.6847 149.212 45.482 149.473 46.4099C149.734 47.3088 149.865 48.3381 149.865 49.498C149.865 51.3537 149.531 52.876 148.864 54.0648C148.197 55.2247 147.299 56.0801 146.168 56.631C145.066 57.1819 143.805 57.4574 142.384 57.4574ZM162.517 57.4574C160.632 57.4574 159.124 57.0804 157.993 56.3265C156.891 55.5726 156.094 54.4418 155.601 52.934C155.137 51.4262 154.891 49.5415 154.862 47.2798H157.906C157.935 49.0775 158.08 50.5418 158.341 51.6727C158.631 52.7745 159.11 53.5864 159.777 54.1083C160.472 54.6013 161.4 54.8477 162.56 54.8477C163.633 54.8477 164.474 54.6013 165.083 54.1083C165.692 53.5864 166.112 52.934 166.344 52.1511C166.605 51.3392 166.736 50.5273 166.736 49.7155C166.736 48.6716 166.576 47.7582 166.257 46.9753C165.967 46.1924 165.576 45.5255 165.083 44.9746C164.59 44.4237 164.024 43.9308 163.387 43.4958C162.749 43.0319 162.082 42.5825 161.386 42.1475C160.661 41.6836 159.922 41.1907 159.168 40.6687C158.414 40.1468 157.732 39.5379 157.123 38.842C156.544 38.1461 156.065 37.3052 155.688 36.3193C155.34 35.3335 155.166 34.1591 155.166 32.7963C155.166 31.0276 155.471 29.5633 156.08 28.4035C156.689 27.2436 157.529 26.3737 158.602 25.7938C159.675 25.2139 160.922 24.9239 162.343 24.9239C164.111 24.9239 165.547 25.3009 166.649 26.0548C167.779 26.7797 168.606 27.896 169.128 29.4038C169.679 30.8826 169.969 32.7673 169.998 35.058H166.91C166.91 33.2313 166.75 31.7815 166.431 30.7086C166.141 29.6068 165.663 28.8094 164.996 28.3165C164.329 27.7945 163.43 27.5336 162.299 27.5336C161.255 27.5336 160.429 27.7945 159.82 28.3165C159.24 28.8384 158.834 29.4908 158.602 30.2737C158.37 31.0566 158.254 31.854 158.254 32.6659C158.254 33.6227 158.399 34.4491 158.689 35.145C158.979 35.8409 159.356 36.4498 159.82 36.9717C160.313 37.4937 160.864 37.9721 161.473 38.407C162.082 38.813 162.72 39.2189 163.387 39.6249C163.995 40.0018 164.619 40.4078 165.257 40.8427C165.895 41.2486 166.489 41.7126 167.04 42.2345C167.62 42.7274 168.127 43.3219 168.562 44.0178C168.997 44.6847 169.345 45.482 169.606 46.4099C169.867 47.3088 169.998 48.3381 169.998 49.498C169.998 51.3537 169.664 52.876 168.997 54.0648C168.33 55.2247 167.432 56.0801 166.301 56.631C165.199 57.1819 163.938 57.4574 162.517 57.4574Z" fill="#E6EDF3"/>
<path d="M187.276 57.0659V25.3589H190.451V57.0659H187.276ZM175.359 57.0659V25.3589H178.534V57.0659H175.359ZM178.099 42.104V39.4509H187.668V42.104H178.099ZM204.378 57.5009C202.812 57.4719 201.434 57.1529 200.246 56.544C199.057 55.9061 198.129 54.8477 197.462 53.3689C196.824 51.8901 196.505 49.8604 196.505 47.2798V25.3589H199.68V47.4538C199.68 48.9616 199.811 50.2809 200.072 51.4117C200.362 52.5136 200.84 53.3544 201.507 53.9344C202.203 54.5143 203.16 54.8042 204.378 54.8042C205.653 54.8042 206.625 54.4998 207.292 53.8909C207.988 53.282 208.466 52.4266 208.727 51.3247C208.988 50.1939 209.118 48.9036 209.118 47.4538V25.3589H212.293V47.2798C212.293 49.6865 211.989 51.6437 211.38 53.1515C210.8 54.6303 209.916 55.7176 208.727 56.4135C207.567 57.1094 206.117 57.4719 204.378 57.5009ZM218.386 57.0659V25.3589H224.431C225.649 25.3589 226.722 25.5184 227.65 25.8373C228.578 26.1273 229.346 26.5912 229.955 27.2291C230.593 27.867 231.071 28.6789 231.39 29.6648C231.709 30.6506 231.869 31.8105 231.869 33.1443C231.869 35.29 231.535 36.9862 230.868 38.2331C230.201 39.4509 229.114 40.2338 227.606 40.5817V40.7557C229.23 41.0167 230.404 41.7851 231.129 43.0609C231.883 44.3367 232.26 46.149 232.26 48.4976C232.26 50.5273 231.956 52.1801 231.347 53.4559C230.738 54.7028 229.853 55.6161 228.694 56.196C227.563 56.776 226.186 57.0659 224.562 57.0659H218.386ZM221.517 55.4566L220.604 54.5433H224.301C226.07 54.5433 227.316 54.0793 228.041 53.1515C228.766 52.2236 229.129 50.9913 229.129 49.4545C229.129 48.9906 229.129 48.5266 229.129 48.0627C229.129 47.5988 229.129 47.1493 229.129 46.7144C229.129 44.9746 228.708 43.7568 227.867 43.0609C227.055 42.336 225.983 41.9735 224.649 41.9735H221.126V39.5379H224.649C225.925 39.5379 226.939 39.1754 227.693 38.4505C228.447 37.6966 228.824 36.5078 228.824 34.884C228.824 34.4491 228.824 34.0142 228.824 33.5792C228.824 33.1153 228.824 32.6659 228.824 32.2309C228.824 31.332 228.65 30.5636 228.302 29.9257C227.983 29.2588 227.476 28.7514 226.78 28.4035C226.113 28.0555 225.229 27.8815 224.127 27.8815H220.604L221.517 26.9682V55.4566Z" fill="#FF0000"/>
<path d="M172.184 64.6773H233.739V66.4171H172.184V64.6773Z" fill="#FF0000"/>
<path d="M45.9948 63.3509C46.613 63.9689 47.6716 63.5849 47.7496 62.7142L48.6294 52.903L43.4928 47.7664L42.1474 58.9474C42.1096 59.2615 42.2182 59.5755 42.4419 59.7992L45.9948 63.3509Z" fill="#FB0000" fill-opacity="0.65"/>
<path d="M43.4928 47.7664L22.4926 52.3607L27.629 57.4972L48.6294 52.903L43.4928 47.7664Z" fill="#FB0000" fill-opacity="0.65"/>
<path d="M22.4926 52.3607L22.491 20.7245C22.4909 19.8065 23.6008 19.3467 24.25 19.9958L27.3255 23.0714C27.5188 23.2646 27.6273 23.5267 27.6273 23.8L27.629 57.4972L22.4926 52.3607Z" fill="#FB0000" fill-opacity="0.65"/>
<path d="M53.4859 45.2475C53.9913 45.735 53.8717 46.5742 53.2502 46.9011L48.2985 49.5057L43.4385 44.8203L48.665 41.6615C49.0648 41.4199 49.5771 41.4774 49.9134 41.8017L53.4859 45.2475Z" fill="#FB0000" fill-opacity="0.4"/>
<path d="M43.4385 44.8203L51.2435 21.1919L56.1033 25.8771L48.2985 49.5057L43.4385 44.8203Z" fill="#FB0000" fill-opacity="0.4"/>
<path d="M51.2435 21.1919L16.3815 26.8249C15.5433 26.9604 15.2194 27.9946 15.8307 28.584L18.836 31.4813C19.0695 31.7064 19.3954 31.8085 19.7155 31.7567L56.1033 25.8771L51.2435 21.1919Z" fill="#FB0000" fill-opacity="0.4"/>
</svg>
