<svg width="290" height="62" viewBox="0 0 290 62" fill="none" xmlns="http://www.w3.org/2000/svg">
<path d="M0.812064 47L10.2445 1.46196H16.5536L26.0485 47H21.426L19.4271 36.7555H7.37104L5.37211 47H0.812064ZM7.9957 33.1324H18.8024L15.1169 14.6424L13.5552 5.83461H13.2429L11.6812 14.6424L7.9957 33.1324ZM41.5846 47.6247C39.2942 47.583 37.2952 47.1458 35.5878 46.3129C33.8804 45.48 32.5686 44.0641 31.6524 42.0652C30.7363 40.0662 30.2782 37.3593 30.2782 33.9445V14.5174C30.2782 11.9355 30.528 9.77 31.0278 8.02094C31.5691 6.27188 32.3187 4.8768 33.2766 3.83569C34.276 2.79458 35.4629 2.04498 36.8371 1.5869C38.253 1.08717 39.8355 0.837301 41.5846 0.837301C44.2082 0.837301 46.332 1.3995 47.9562 2.5239C49.6219 3.64829 50.8296 5.39735 51.5792 7.77108C52.3288 10.1448 52.7036 13.2265 52.7036 17.0161H48.206C48.2477 14.0177 48.0395 11.6232 47.5814 9.83247C47.1649 8.04176 46.4778 6.75079 45.52 5.95955C44.5622 5.12666 43.2295 4.71022 41.5221 4.71022C39.8147 4.71022 38.4821 5.08502 37.5243 5.83461C36.5665 6.54257 35.8793 7.58368 35.4629 8.95794C35.0464 10.3322 34.8382 11.9771 34.8382 13.8928V34.5692C34.8382 36.3599 35.0048 37.8591 35.3379 39.0668C35.6711 40.2744 36.1292 41.2323 36.7122 41.9402C37.2952 42.6065 37.9824 43.0854 38.7736 43.3769C39.6065 43.6268 40.5227 43.7517 41.5221 43.7517C43.2712 43.7517 44.6246 43.3353 45.5824 42.5024C46.5403 41.6695 47.2274 40.3577 47.6438 38.567C48.0603 36.7347 48.2477 34.361 48.206 31.4459H52.7036C52.7036 34.3193 52.4746 36.7763 52.0165 38.8169C51.6 40.8575 50.9337 42.5232 50.0176 43.8142C49.143 45.1052 47.9978 46.063 46.5819 46.6877C45.2076 47.3123 43.5419 47.6247 41.5846 47.6247ZM70.6217 47.6247C68.3313 47.583 66.3324 47.1458 64.6249 46.3129C62.9175 45.48 61.6057 44.0641 60.6896 42.0652C59.7734 40.0662 59.3153 37.3593 59.3153 33.9445V14.5174C59.3153 11.9355 59.5652 9.77 60.0649 8.02094C60.6063 6.27188 61.3559 4.8768 62.3137 3.83569C63.3131 2.79458 64.5 2.04498 65.8743 1.5869C67.2902 1.08717 68.8727 0.837301 70.6217 0.837301C73.2453 0.837301 75.3692 1.3995 76.9933 2.5239C78.6591 3.64829 79.8668 5.39735 80.6164 7.77108C81.366 10.1448 81.7408 13.2265 81.7408 17.0161H77.2432C77.2848 14.0177 77.0766 11.6232 76.6185 9.83247C76.2021 8.04176 75.5149 6.75079 74.5571 5.95955C73.5993 5.12666 72.2667 4.71022 70.5593 4.71022C68.8518 4.71022 67.5192 5.08502 66.5614 5.83461C65.6036 6.54257 64.9165 7.58368 64.5 8.95794C64.0836 10.3322 63.8753 11.9771 63.8753 13.8928V34.5692C63.8753 36.3599 64.0419 37.8591 64.3751 39.0668C64.7082 40.2744 65.1663 41.2323 65.7493 41.9402C66.3324 42.6065 67.0195 43.0854 67.8107 43.3769C68.6436 43.6268 69.5598 43.7517 70.5593 43.7517C72.3083 43.7517 73.6618 43.3353 74.6196 42.5024C75.5774 41.6695 76.2645 40.3577 76.681 38.567C77.0974 36.7347 77.2848 34.361 77.2432 31.4459H81.7408C81.7408 34.3193 81.5117 36.7763 81.0536 38.8169C80.6372 40.8575 79.9709 42.5232 79.0547 43.8142C78.1802 45.1052 77.0349 46.063 75.619 46.6877C74.2448 47.3123 72.579 47.6247 70.6217 47.6247ZM89.4144 47V1.46196H106.593V5.33488H93.9744V21.7011H105.156V25.5115H93.9744V43.1271H106.967V47H89.4144ZM123.493 47.5622C120.786 47.5622 118.621 47.0208 116.997 45.9381C115.414 44.8553 114.269 43.2312 113.561 41.0657C112.895 38.9002 112.541 36.1933 112.499 32.9451H116.872C116.913 35.527 117.122 37.63 117.496 39.2542C117.913 40.8366 118.6 42.0027 119.558 42.7523C120.557 43.4602 121.89 43.8142 123.556 43.8142C125.097 43.8142 126.304 43.4602 127.179 42.7523C128.053 42.0027 128.657 41.0657 128.99 39.9413C129.365 38.7753 129.552 37.6092 129.552 36.4432C129.552 34.944 129.323 33.6322 128.865 32.5078C128.449 31.3834 127.887 30.4256 127.179 29.6343C126.471 28.8431 125.659 28.1351 124.743 27.5105C123.826 26.8442 122.869 26.1987 121.869 25.574C120.828 24.9077 119.766 24.1997 118.683 23.4502C117.601 22.7006 116.622 21.826 115.747 20.8266C114.914 19.8271 114.227 18.6194 113.686 17.2035C113.186 15.7876 112.936 14.101 112.936 12.1437C112.936 9.60342 113.374 7.50039 114.248 5.83461C115.123 4.16884 116.33 2.91951 117.871 2.08663C119.412 1.25374 121.203 0.837301 123.243 0.837301C125.784 0.837301 127.845 1.37868 129.428 2.46143C131.052 3.50253 132.239 5.10584 132.988 7.27134C133.779 9.3952 134.196 12.1021 134.237 15.392H129.802C129.802 12.7684 129.573 10.6862 129.115 9.14534C128.699 7.56285 128.012 6.41763 127.054 5.70968C126.096 4.96009 124.805 4.58529 123.181 4.58529C121.682 4.58529 120.495 4.96009 119.62 5.70968C118.787 6.45928 118.204 7.39628 117.871 8.52067C117.538 9.64507 117.372 10.7903 117.372 11.9563C117.372 13.3306 117.58 14.5175 117.996 15.5169C118.413 16.5164 118.954 17.3909 119.62 18.1405C120.328 18.8901 121.119 19.5772 121.994 20.2019C122.869 20.7849 123.785 21.3679 124.743 21.951C125.617 22.4923 126.512 23.0754 127.429 23.7C128.345 24.283 129.198 24.9493 129.99 25.6989C130.823 26.4069 131.551 27.2606 132.176 28.2601C132.801 29.2179 133.3 30.3631 133.675 31.6957C134.05 32.9867 134.237 34.4651 134.237 36.1308C134.237 38.7961 133.759 40.9824 132.801 42.6898C131.843 44.3556 130.552 45.5841 128.928 46.3753C127.345 47.1666 125.534 47.5622 123.493 47.5622ZM152.408 47.5622C149.701 47.5622 147.536 47.0208 145.912 45.9381C144.329 44.8553 143.184 43.2312 142.476 41.0657C141.81 38.9002 141.456 36.1933 141.414 32.9451H145.787C145.829 35.527 146.037 37.63 146.412 39.2542C146.828 40.8366 147.515 42.0027 148.473 42.7523C149.472 43.4602 150.805 43.8142 152.471 43.8142C154.012 43.8142 155.219 43.4602 156.094 42.7523C156.968 42.0027 157.572 41.0657 157.905 39.9413C158.28 38.7753 158.468 37.6092 158.468 36.4432C158.468 34.944 158.239 33.6322 157.78 32.5078C157.364 31.3834 156.802 30.4256 156.094 29.6343C155.386 28.8431 154.574 28.1351 153.658 27.5105C152.741 26.8442 151.784 26.1987 150.784 25.574C149.743 24.9077 148.681 24.1997 147.598 23.4502C146.516 22.7006 145.537 21.826 144.663 20.8266C143.83 19.8271 143.142 18.6194 142.601 17.2035C142.101 15.7876 141.852 14.101 141.852 12.1437C141.852 9.60342 142.289 7.50039 143.163 5.83461C144.038 4.16884 145.246 2.91951 146.786 2.08663C148.327 1.25374 150.118 0.837301 152.158 0.837301C154.699 0.837301 156.76 1.37868 158.343 2.46143C159.967 3.50253 161.154 5.10584 161.903 7.27134C162.694 9.3952 163.111 12.1021 163.153 15.392H158.717C158.717 12.7684 158.488 10.6862 158.03 9.14534C157.614 7.56285 156.927 6.41763 155.969 5.70968C155.011 4.96009 153.72 4.58529 152.096 4.58529C150.597 4.58529 149.41 4.96009 148.535 5.70968C147.703 6.45928 147.12 7.39628 146.786 8.52067C146.453 9.64507 146.287 10.7903 146.287 11.9563C146.287 13.3306 146.495 14.5175 146.911 15.5169C147.328 16.5164 147.869 17.3909 148.535 18.1405C149.243 18.8901 150.035 19.5772 150.909 20.2019C151.784 20.7849 152.7 21.3679 153.658 21.951C154.532 22.4923 155.428 23.0754 156.344 23.7C157.26 24.283 158.114 24.9493 158.905 25.6989C159.738 26.4069 160.467 27.2606 161.091 28.2601C161.716 29.2179 162.216 30.3631 162.59 31.6957C162.965 32.9867 163.153 34.4651 163.153 36.1308C163.153 38.7961 162.674 40.9824 161.716 42.6898C160.758 44.3556 159.467 45.5841 157.843 46.3753C156.26 47.1666 154.449 47.5622 152.408 47.5622Z" fill="black"/>
<path d="M187.968 47V1.46196H192.528V47H187.968ZM170.853 47V1.46196H175.413V47H170.853ZM174.788 25.5115V21.7011H188.531V25.5115H174.788ZM212.529 47.6247C210.281 47.583 208.302 47.1249 206.595 46.2504C204.888 45.3342 203.555 43.8142 202.597 41.6904C201.681 39.5665 201.223 36.6514 201.223 32.9451V1.46196H205.783V33.1949C205.783 35.3604 205.97 37.2552 206.345 38.8794C206.762 40.4618 207.449 41.6695 208.407 42.5024C209.406 43.3353 210.78 43.7517 212.529 43.7517C214.362 43.7517 215.757 43.3145 216.715 42.4399C217.714 41.5654 218.401 40.3369 218.776 38.7544C219.151 37.1303 219.338 35.2771 219.338 33.1949V1.46196H223.898V32.9451C223.898 36.4015 223.461 39.2125 222.586 41.378C221.754 43.5019 220.483 45.0635 218.776 46.063C217.11 47.0625 215.028 47.583 212.529 47.6247ZM232.648 47V1.46196H241.331C243.08 1.46196 244.621 1.69101 245.953 2.14909C247.286 2.56554 248.389 3.23185 249.264 4.14802C250.18 5.0642 250.867 6.23024 251.325 7.64614C251.784 9.06205 252.013 10.7278 252.013 12.6435C252.013 15.7251 251.534 18.1613 250.576 19.952C249.618 21.7011 248.056 22.8255 245.891 23.3252V23.5751C248.223 23.9499 249.91 25.0535 250.951 26.8858C252.033 28.7182 252.575 31.3209 252.575 34.6941C252.575 37.6092 252.137 39.9829 251.263 41.8153C250.388 43.606 249.118 44.9178 247.453 45.7507C245.828 46.5836 243.85 47 241.518 47H232.648ZM237.146 44.6887L235.834 43.3769H241.143C243.684 43.3769 245.474 42.7106 246.516 41.378C247.557 40.0454 248.077 38.2755 248.077 36.0684C248.077 35.4021 248.077 34.7358 248.077 34.0694C248.077 33.4031 248.077 32.7577 248.077 32.133C248.077 29.6343 247.473 27.8853 246.266 26.8858C245.1 25.8447 243.559 25.3241 241.643 25.3241H236.583V21.826H241.643C243.475 21.826 244.933 21.3055 246.016 20.2644C247.099 19.1816 247.64 17.4742 247.64 15.1421C247.64 14.5174 247.64 13.8928 247.64 13.2681C247.64 12.6018 247.64 11.9563 247.64 11.3317C247.64 10.0407 247.39 8.93711 246.89 8.02094C246.432 7.06312 245.703 6.33435 244.704 5.83461C243.746 5.33488 242.476 5.08502 240.894 5.08502H235.834L237.146 3.77322V44.6887Z" fill="#FF0000"/>
<path d="M166.292 57.9316H254.699V60.4303H166.292V57.9316Z" fill="#FF0000"/>
<path d="M271.949 56.9076L284.259 40.4158C284.488 40.1087 284.522 39.6976 284.346 39.3573L283.134 37.0187C282.8 36.3743 281.912 36.2889 281.462 36.8578L279.985 38.7224C279.727 39.0475 279.697 39.4979 279.909 39.8544L284.313 47.2654C284.524 47.6207 284.495 48.0692 284.24 48.3941L277.857 56.5221C277.414 57.0863 276.538 57.0144 276.193 56.3856L264.187 34.5084C263.828 33.8542 262.905 33.8093 262.484 34.4257L259.782 38.384C259.561 38.7081 259.549 39.1316 259.753 39.467L270.293 56.8283C270.661 57.4345 271.525 57.4758 271.949 56.9076Z" stroke="#D52C13" stroke-width="3"/>
</svg>
